<mxfile host="65bd71144e" pages="3">
    <diagram id="u_uuwRc1NOv4MtVCJ0st" name="Page-1">
        <mxGraphModel dx="965" dy="603" grid="0" gridSize="10" guides="1" tooltips="1" connect="1" arrows="1" fold="1" page="1" pageScale="1" pageWidth="850" pageHeight="1100" math="0" shadow="0">
            <root>
                <mxCell id="0"/>
                <mxCell id="1" parent="0"/>
                <mxCell id="iMErdK-eLQG_Rrcvuobb-1" value="kafka-1" style="rounded=1;whiteSpace=wrap;html=1;" parent="1" vertex="1">
                    <mxGeometry x="140" y="374" width="120" height="60" as="geometry"/>
                </mxCell>
                <mxCell id="iMErdK-eLQG_Rrcvuobb-12" style="edgeStyle=orthogonalEdgeStyle;rounded=0;orthogonalLoop=1;jettySize=auto;html=1;exitX=0.25;exitY=1;exitDx=0;exitDy=0;entryX=0.5;entryY=0;entryDx=0;entryDy=0;" parent="1" source="iMErdK-eLQG_Rrcvuobb-2" target="iMErdK-eLQG_Rrcvuobb-1" edge="1">
                    <mxGeometry relative="1" as="geometry"/>
                </mxCell>
                <mxCell id="iMErdK-eLQG_Rrcvuobb-13" style="edgeStyle=orthogonalEdgeStyle;rounded=0;orthogonalLoop=1;jettySize=auto;html=1;exitX=0.5;exitY=1;exitDx=0;exitDy=0;entryX=0.5;entryY=0;entryDx=0;entryDy=0;" parent="1" source="iMErdK-eLQG_Rrcvuobb-2" target="iMErdK-eLQG_Rrcvuobb-3" edge="1">
                    <mxGeometry relative="1" as="geometry"/>
                </mxCell>
                <mxCell id="iMErdK-eLQG_Rrcvuobb-14" style="edgeStyle=orthogonalEdgeStyle;rounded=0;orthogonalLoop=1;jettySize=auto;html=1;exitX=0.75;exitY=1;exitDx=0;exitDy=0;entryX=0.5;entryY=0;entryDx=0;entryDy=0;" parent="1" source="iMErdK-eLQG_Rrcvuobb-2" target="iMErdK-eLQG_Rrcvuobb-4" edge="1">
                    <mxGeometry relative="1" as="geometry"/>
                </mxCell>
                <mxCell id="iMErdK-eLQG_Rrcvuobb-2" value="zookeeper-1" style="rounded=1;whiteSpace=wrap;html=1;" parent="1" vertex="1">
                    <mxGeometry x="270" y="274" width="120" height="60" as="geometry"/>
                </mxCell>
                <mxCell id="iMErdK-eLQG_Rrcvuobb-3" value="kafka-2" style="rounded=1;whiteSpace=wrap;html=1;" parent="1" vertex="1">
                    <mxGeometry x="270" y="374" width="120" height="60" as="geometry"/>
                </mxCell>
                <mxCell id="iMErdK-eLQG_Rrcvuobb-4" value="kafka-3" style="rounded=1;whiteSpace=wrap;html=1;" parent="1" vertex="1">
                    <mxGeometry x="400" y="374" width="120" height="60" as="geometry"/>
                </mxCell>
                <mxCell id="iMErdK-eLQG_Rrcvuobb-15" style="edgeStyle=orthogonalEdgeStyle;rounded=0;orthogonalLoop=1;jettySize=auto;html=1;exitX=1;exitY=0.5;exitDx=0;exitDy=0;entryX=0.436;entryY=0.002;entryDx=0;entryDy=0;entryPerimeter=0;dashed=1;" parent="1" source="iMErdK-eLQG_Rrcvuobb-5" target="iMErdK-eLQG_Rrcvuobb-2" edge="1">
                    <mxGeometry relative="1" as="geometry"/>
                </mxCell>
                <mxCell id="iMErdK-eLQG_Rrcvuobb-16" style="edgeStyle=orthogonalEdgeStyle;rounded=0;orthogonalLoop=1;jettySize=auto;html=1;exitX=0.25;exitY=1;exitDx=0;exitDy=0;entryX=0.121;entryY=-0.001;entryDx=0;entryDy=0;entryPerimeter=0;dashed=1;" parent="1" source="iMErdK-eLQG_Rrcvuobb-5" target="iMErdK-eLQG_Rrcvuobb-1" edge="1">
                    <mxGeometry relative="1" as="geometry"/>
                </mxCell>
                <mxCell id="iMErdK-eLQG_Rrcvuobb-17" style="edgeStyle=orthogonalEdgeStyle;rounded=0;orthogonalLoop=1;jettySize=auto;html=1;exitX=1;exitY=0.25;exitDx=0;exitDy=0;entryX=0.655;entryY=0.027;entryDx=0;entryDy=0;entryPerimeter=0;" parent="1" source="iMErdK-eLQG_Rrcvuobb-5" target="iMErdK-eLQG_Rrcvuobb-4" edge="1">
                    <mxGeometry relative="1" as="geometry"/>
                </mxCell>
                <mxCell id="iMErdK-eLQG_Rrcvuobb-18" style="edgeStyle=orthogonalEdgeStyle;rounded=0;orthogonalLoop=1;jettySize=auto;html=1;exitX=0.75;exitY=1;exitDx=0;exitDy=0;entryX=0.25;entryY=0;entryDx=0;entryDy=0;dashed=1;" parent="1" edge="1">
                    <mxGeometry relative="1" as="geometry">
                        <mxPoint x="218" y="234" as="sourcePoint"/>
                        <mxPoint x="288" y="374" as="targetPoint"/>
                        <Array as="points">
                            <mxPoint x="218" y="344"/>
                            <mxPoint x="288" y="344"/>
                        </Array>
                    </mxGeometry>
                </mxCell>
                <mxCell id="iMErdK-eLQG_Rrcvuobb-5" value="kcat" style="rounded=1;whiteSpace=wrap;html=1;" parent="1" vertex="1">
                    <mxGeometry x="140" y="174" width="120" height="60" as="geometry"/>
                </mxCell>
                <mxCell id="iMErdK-eLQG_Rrcvuobb-6" value="" style="sketch=0;aspect=fixed;html=1;points=[];align=center;image;fontSize=12;image=img/lib/mscae/Docker.svg;" parent="1" vertex="1">
                    <mxGeometry x="230" y="380" width="24.39" height="20" as="geometry"/>
                </mxCell>
                <mxCell id="iMErdK-eLQG_Rrcvuobb-7" value="" style="sketch=0;aspect=fixed;html=1;points=[];align=center;image;fontSize=12;image=img/lib/mscae/Docker.svg;" parent="1" vertex="1">
                    <mxGeometry x="273" y="380" width="24.39" height="20" as="geometry"/>
                </mxCell>
                <mxCell id="iMErdK-eLQG_Rrcvuobb-10" value="" style="sketch=0;aspect=fixed;html=1;points=[];align=center;image;fontSize=12;image=img/lib/mscae/Docker.svg;" parent="1" vertex="1">
                    <mxGeometry x="145" y="179" width="24.39" height="20" as="geometry"/>
                </mxCell>
                <mxCell id="iMErdK-eLQG_Rrcvuobb-11" value="" style="sketch=0;aspect=fixed;html=1;points=[];align=center;image;fontSize=12;image=img/lib/mscae/Docker.svg;" parent="1" vertex="1">
                    <mxGeometry x="274" y="280" width="24.39" height="20" as="geometry"/>
                </mxCell>
                <mxCell id="Xvgvric5l0xAFflvNCxh-2" style="edgeStyle=orthogonalEdgeStyle;rounded=0;orthogonalLoop=1;jettySize=auto;html=1;exitX=1;exitY=0.5;exitDx=0;exitDy=0;entryX=0.867;entryY=-0.015;entryDx=0;entryDy=0;entryPerimeter=0;dashed=1;" parent="1" source="iMErdK-eLQG_Rrcvuobb-19" target="iMErdK-eLQG_Rrcvuobb-4" edge="1">
                    <mxGeometry relative="1" as="geometry"/>
                </mxCell>
                <mxCell id="Xvgvric5l0xAFflvNCxh-3" style="edgeStyle=orthogonalEdgeStyle;rounded=0;orthogonalLoop=1;jettySize=auto;html=1;exitX=0;exitY=0.25;exitDx=0;exitDy=0;dashed=1;entryX=-0.005;entryY=0.214;entryDx=0;entryDy=0;entryPerimeter=0;" parent="1" source="iMErdK-eLQG_Rrcvuobb-19" target="iMErdK-eLQG_Rrcvuobb-1" edge="1">
                    <mxGeometry relative="1" as="geometry"/>
                </mxCell>
                <mxCell id="Xvgvric5l0xAFflvNCxh-4" style="edgeStyle=orthogonalEdgeStyle;rounded=0;orthogonalLoop=1;jettySize=auto;html=1;exitX=0.75;exitY=1;exitDx=0;exitDy=0;entryX=0.907;entryY=0.009;entryDx=0;entryDy=0;entryPerimeter=0;dashed=1;" parent="1" source="iMErdK-eLQG_Rrcvuobb-19" target="iMErdK-eLQG_Rrcvuobb-3" edge="1">
                    <mxGeometry relative="1" as="geometry">
                        <Array as="points">
                            <mxPoint x="420" y="144"/>
                            <mxPoint x="420" y="340"/>
                            <mxPoint x="379" y="340"/>
                        </Array>
                    </mxGeometry>
                </mxCell>
                <mxCell id="iMErdK-eLQG_Rrcvuobb-19" value="akhq" style="rounded=1;whiteSpace=wrap;html=1;" parent="1" vertex="1">
                    <mxGeometry x="274.00000000000006" y="84" width="120" height="60" as="geometry"/>
                </mxCell>
                <mxCell id="iMErdK-eLQG_Rrcvuobb-20" value="" style="sketch=0;aspect=fixed;html=1;points=[];align=center;image;fontSize=12;image=img/lib/mscae/Docker.svg;" parent="1" vertex="1">
                    <mxGeometry x="278.42" y="89" width="24.39" height="20" as="geometry"/>
                </mxCell>
                <mxCell id="iMErdK-eLQG_Rrcvuobb-21" value="" style="shape=flexArrow;endArrow=classic;html=1;rounded=0;dashed=1;entryX=0.5;entryY=0;entryDx=0;entryDy=0;" parent="1" edge="1">
                    <mxGeometry width="50" height="50" relative="1" as="geometry">
                        <mxPoint x="333.81" y="49" as="sourcePoint"/>
                        <mxPoint x="334.00000000000006" y="89" as="targetPoint"/>
                    </mxGeometry>
                </mxCell>
                <mxCell id="iMErdK-eLQG_Rrcvuobb-22" value="port 28042" style="text;html=1;strokeColor=none;fillColor=none;align=center;verticalAlign=middle;whiteSpace=wrap;rounded=0;" parent="1" vertex="1">
                    <mxGeometry x="307.81" y="20" width="50" height="30" as="geometry"/>
                </mxCell>
                <mxCell id="iMErdK-eLQG_Rrcvuobb-23" value="8080" style="text;html=1;strokeColor=none;fillColor=none;align=center;verticalAlign=middle;whiteSpace=wrap;rounded=0;" parent="1" vertex="1">
                    <mxGeometry x="303.81" y="79" width="60" height="30" as="geometry"/>
                </mxCell>
                <mxCell id="iMErdK-eLQG_Rrcvuobb-24" value="" style="shape=flexArrow;endArrow=classic;html=1;rounded=0;dashed=1;entryX=0.5;entryY=0;entryDx=0;entryDy=0;" parent="1" edge="1">
                    <mxGeometry width="50" height="50" relative="1" as="geometry">
                        <mxPoint x="373.80999999999995" y="238" as="sourcePoint"/>
                        <mxPoint x="374" y="278" as="targetPoint"/>
                    </mxGeometry>
                </mxCell>
                <mxCell id="iMErdK-eLQG_Rrcvuobb-25" value="port 2181" style="text;html=1;strokeColor=none;fillColor=none;align=center;verticalAlign=middle;whiteSpace=wrap;rounded=0;" parent="1" vertex="1">
                    <mxGeometry x="347.80999999999995" y="209" width="50" height="30" as="geometry"/>
                </mxCell>
                <mxCell id="iMErdK-eLQG_Rrcvuobb-26" value="2181" style="text;html=1;strokeColor=none;fillColor=none;align=center;verticalAlign=middle;whiteSpace=wrap;rounded=0;" parent="1" vertex="1">
                    <mxGeometry x="344" y="270" width="60" height="30" as="geometry"/>
                </mxCell>
                <mxCell id="Xvgvric5l0xAFflvNCxh-1" value="" style="sketch=0;aspect=fixed;html=1;points=[];align=center;image;fontSize=12;image=img/lib/mscae/Docker.svg;" parent="1" vertex="1">
                    <mxGeometry x="402.8" y="380" width="24.39" height="20" as="geometry"/>
                </mxCell>
                <mxCell id="Xvgvric5l0xAFflvNCxh-5" value="19093" style="text;html=1;strokeColor=none;fillColor=none;align=center;verticalAlign=middle;whiteSpace=wrap;rounded=0;" parent="1" vertex="1">
                    <mxGeometry x="340" y="366" width="60" height="30" as="geometry"/>
                </mxCell>
                <mxCell id="Xvgvric5l0xAFflvNCxh-6" value="19094" style="text;html=1;strokeColor=none;fillColor=none;align=center;verticalAlign=middle;whiteSpace=wrap;rounded=0;" parent="1" vertex="1">
                    <mxGeometry x="462" y="368" width="60" height="30" as="geometry"/>
                </mxCell>
                <mxCell id="Xvgvric5l0xAFflvNCxh-7" value="19092" style="text;html=1;strokeColor=none;fillColor=none;align=center;verticalAlign=middle;whiteSpace=wrap;rounded=0;" parent="1" vertex="1">
                    <mxGeometry x="129.19" y="371" width="60" height="30" as="geometry"/>
                </mxCell>
                <mxCell id="Xvgvric5l0xAFflvNCxh-15" style="edgeStyle=orthogonalEdgeStyle;rounded=0;orthogonalLoop=1;jettySize=auto;html=1;exitX=0.5;exitY=0;exitDx=0;exitDy=0;entryX=0;entryY=0.5;entryDx=0;entryDy=0;dashed=1;" parent="1" source="Xvgvric5l0xAFflvNCxh-8" target="Xvgvric5l0xAFflvNCxh-13" edge="1">
                    <mxGeometry relative="1" as="geometry"/>
                </mxCell>
                <mxCell id="Xvgvric5l0xAFflvNCxh-8" value="kafka-1" style="rounded=1;whiteSpace=wrap;html=1;" parent="1" vertex="1">
                    <mxGeometry x="80" y="849" width="290" height="60" as="geometry"/>
                </mxCell>
                <mxCell id="Xvgvric5l0xAFflvNCxh-9" value="" style="sketch=0;aspect=fixed;html=1;points=[];align=center;image;fontSize=12;image=img/lib/mscae/Docker.svg;" parent="1" vertex="1">
                    <mxGeometry x="248.42" y="858" width="24.39" height="20" as="geometry"/>
                </mxCell>
                <mxCell id="Xvgvric5l0xAFflvNCxh-12" style="edgeStyle=orthogonalEdgeStyle;rounded=0;orthogonalLoop=1;jettySize=auto;html=1;exitX=0.5;exitY=0;exitDx=0;exitDy=0;dashed=1;" parent="1" source="Xvgvric5l0xAFflvNCxh-11" target="Xvgvric5l0xAFflvNCxh-8" edge="1">
                    <mxGeometry relative="1" as="geometry"/>
                </mxCell>
                <mxCell id="Xvgvric5l0xAFflvNCxh-11" value="&lt;br&gt;bash terminal" style="rounded=0;whiteSpace=wrap;html=1;fillColor=#f5f5f5;fontColor=#333333;strokeColor=#666666;" parent="1" vertex="1">
                    <mxGeometry x="130" y="969" width="190" height="60" as="geometry"/>
                </mxCell>
                <mxCell id="Xvgvric5l0xAFflvNCxh-13" value="zookeeper-1" style="rounded=1;whiteSpace=wrap;html=1;" parent="1" vertex="1">
                    <mxGeometry x="274.39" y="759" width="120" height="60" as="geometry"/>
                </mxCell>
                <mxCell id="Xvgvric5l0xAFflvNCxh-14" value="" style="sketch=0;aspect=fixed;html=1;points=[];align=center;image;fontSize=12;image=img/lib/mscae/Docker.svg;" parent="1" vertex="1">
                    <mxGeometry x="278.39" y="765" width="24.39" height="20" as="geometry"/>
                </mxCell>
                <mxCell id="Xvgvric5l0xAFflvNCxh-16" value="&#10;&#10;&lt;div style=&quot;color: rgb(0, 0, 0); background-color: rgb(255, 255, 255); font-family: consolas, &amp;quot;courier new&amp;quot;, monospace; font-weight: normal; font-size: 10px; line-height: 19px;&quot;&gt;&lt;div style=&quot;font-size: 10px;&quot;&gt;&lt;span style=&quot;color: rgb(0, 0, 0); font-size: 10px;&quot;&gt;docker exec -ti kafka-1 bash&lt;/span&gt;&lt;/div&gt;&lt;/div&gt;&#10;&#10;" style="text;html=1;strokeColor=none;fillColor=none;align=center;verticalAlign=middle;whiteSpace=wrap;rounded=0;fontSize=10;" parent="1" vertex="1">
                    <mxGeometry x="144.19" y="969" width="162.19" height="30" as="geometry"/>
                </mxCell>
                <mxCell id="Xvgvric5l0xAFflvNCxh-17" value="&lt;div style=&quot;background-color: rgb(255, 255, 255); font-family: consolas, &amp;quot;courier new&amp;quot;, monospace; font-size: 9px; line-height: 19px;&quot;&gt;kafka-topics --list --zookeeper zookeeper-1:2181&lt;/div&gt;" style="text;html=1;strokeColor=none;fillColor=none;align=center;verticalAlign=middle;whiteSpace=wrap;rounded=0;fontSize=9;" parent="1" vertex="1">
                    <mxGeometry x="85" y="884" width="243.77" height="30" as="geometry"/>
                </mxCell>
                <mxCell id="Xvgvric5l0xAFflvNCxh-18" value="kafka-1" style="rounded=1;whiteSpace=wrap;html=1;" parent="1" vertex="1">
                    <mxGeometry x="458" y="849" width="120" height="60" as="geometry"/>
                </mxCell>
                <mxCell id="Xvgvric5l0xAFflvNCxh-19" style="edgeStyle=orthogonalEdgeStyle;rounded=0;orthogonalLoop=1;jettySize=auto;html=1;exitX=0.25;exitY=1;exitDx=0;exitDy=0;entryX=0.5;entryY=0;entryDx=0;entryDy=0;" parent="1" source="Xvgvric5l0xAFflvNCxh-22" target="Xvgvric5l0xAFflvNCxh-18" edge="1">
                    <mxGeometry relative="1" as="geometry"/>
                </mxCell>
                <mxCell id="Xvgvric5l0xAFflvNCxh-20" style="edgeStyle=orthogonalEdgeStyle;rounded=0;orthogonalLoop=1;jettySize=auto;html=1;exitX=0.5;exitY=1;exitDx=0;exitDy=0;entryX=0.5;entryY=0;entryDx=0;entryDy=0;" parent="1" source="Xvgvric5l0xAFflvNCxh-22" target="Xvgvric5l0xAFflvNCxh-23" edge="1">
                    <mxGeometry relative="1" as="geometry"/>
                </mxCell>
                <mxCell id="Xvgvric5l0xAFflvNCxh-21" style="edgeStyle=orthogonalEdgeStyle;rounded=0;orthogonalLoop=1;jettySize=auto;html=1;exitX=0.75;exitY=1;exitDx=0;exitDy=0;entryX=0.5;entryY=0;entryDx=0;entryDy=0;" parent="1" source="Xvgvric5l0xAFflvNCxh-22" target="Xvgvric5l0xAFflvNCxh-24" edge="1">
                    <mxGeometry relative="1" as="geometry"/>
                </mxCell>
                <mxCell id="Xvgvric5l0xAFflvNCxh-22" value="zookeeper-1" style="rounded=1;whiteSpace=wrap;html=1;" parent="1" vertex="1">
                    <mxGeometry x="588" y="749" width="120" height="60" as="geometry"/>
                </mxCell>
                <mxCell id="Xvgvric5l0xAFflvNCxh-23" value="kafka-2" style="rounded=1;whiteSpace=wrap;html=1;" parent="1" vertex="1">
                    <mxGeometry x="588" y="849" width="120" height="60" as="geometry"/>
                </mxCell>
                <mxCell id="Xvgvric5l0xAFflvNCxh-24" value="kafka-3" style="rounded=1;whiteSpace=wrap;html=1;" parent="1" vertex="1">
                    <mxGeometry x="718" y="849" width="120" height="60" as="geometry"/>
                </mxCell>
                <mxCell id="Xvgvric5l0xAFflvNCxh-25" value="" style="sketch=0;aspect=fixed;html=1;points=[];align=center;image;fontSize=12;image=img/lib/mscae/Docker.svg;" parent="1" vertex="1">
                    <mxGeometry x="548" y="855" width="24.39" height="20" as="geometry"/>
                </mxCell>
                <mxCell id="Xvgvric5l0xAFflvNCxh-26" value="" style="sketch=0;aspect=fixed;html=1;points=[];align=center;image;fontSize=12;image=img/lib/mscae/Docker.svg;" parent="1" vertex="1">
                    <mxGeometry x="591" y="855" width="24.39" height="20" as="geometry"/>
                </mxCell>
                <mxCell id="Xvgvric5l0xAFflvNCxh-27" value="" style="sketch=0;aspect=fixed;html=1;points=[];align=center;image;fontSize=12;image=img/lib/mscae/Docker.svg;" parent="1" vertex="1">
                    <mxGeometry x="592" y="755" width="24.39" height="20" as="geometry"/>
                </mxCell>
                <mxCell id="Xvgvric5l0xAFflvNCxh-29" value="" style="sketch=0;aspect=fixed;html=1;points=[];align=center;image;fontSize=12;image=img/lib/mscae/Docker.svg;" parent="1" vertex="1">
                    <mxGeometry x="720.8" y="855" width="24.39" height="20" as="geometry"/>
                </mxCell>
                <mxCell id="Xvgvric5l0xAFflvNCxh-33" value="test-topic" style="shape=cylinder3;whiteSpace=wrap;html=1;boundedLbl=1;backgroundOutline=1;size=5.200000000000102;fontSize=9;fillColor=#f8cecc;strokeColor=#b85450;" parent="1" vertex="1">
                    <mxGeometry x="623" y="730" width="50" height="40" as="geometry"/>
                </mxCell>
                <mxCell id="Xvgvric5l0xAFflvNCxh-34" value="test-topic" style="shape=cylinder3;whiteSpace=wrap;html=1;boundedLbl=1;backgroundOutline=1;size=5.200000000000102;fontSize=9;fillColor=#f8cecc;strokeColor=#b85450;" parent="1" vertex="1">
                    <mxGeometry x="528" y="888" width="50" height="40" as="geometry"/>
                </mxCell>
                <mxCell id="Xvgvric5l0xAFflvNCxh-35" value="test-topic" style="shape=cylinder3;whiteSpace=wrap;html=1;boundedLbl=1;backgroundOutline=1;size=5.200000000000102;fontSize=9;fillColor=#f8cecc;strokeColor=#b85450;" parent="1" vertex="1">
                    <mxGeometry x="663" y="888" width="50" height="40" as="geometry"/>
                </mxCell>
                <mxCell id="Xvgvric5l0xAFflvNCxh-36" value="test-topic" style="shape=cylinder3;whiteSpace=wrap;html=1;boundedLbl=1;backgroundOutline=1;size=5.200000000000102;fontSize=9;fillColor=#f8cecc;strokeColor=#b85450;" parent="1" vertex="1">
                    <mxGeometry x="800" y="888" width="50" height="40" as="geometry"/>
                </mxCell>
                <mxCell id="15" style="edgeStyle=orthogonalEdgeStyle;html=1;exitX=0.25;exitY=0;exitDx=0;exitDy=0;dashed=1;" edge="1" parent="1" source="2" target="iMErdK-eLQG_Rrcvuobb-1">
                    <mxGeometry relative="1" as="geometry"/>
                </mxCell>
                <mxCell id="16" style="edgeStyle=orthogonalEdgeStyle;html=1;exitX=0.25;exitY=0;exitDx=0;exitDy=0;entryX=0.112;entryY=0.985;entryDx=0;entryDy=0;entryPerimeter=0;dashed=1;" edge="1" parent="1" source="2" target="iMErdK-eLQG_Rrcvuobb-3">
                    <mxGeometry relative="1" as="geometry">
                        <Array as="points">
                            <mxPoint x="225" y="450"/>
                            <mxPoint x="283" y="450"/>
                        </Array>
                    </mxGeometry>
                </mxCell>
                <mxCell id="17" style="edgeStyle=orthogonalEdgeStyle;html=1;exitX=0.25;exitY=0;exitDx=0;exitDy=0;entryX=0.175;entryY=1.027;entryDx=0;entryDy=0;entryPerimeter=0;dashed=1;" edge="1" parent="1" source="2" target="iMErdK-eLQG_Rrcvuobb-4">
                    <mxGeometry relative="1" as="geometry">
                        <Array as="points">
                            <mxPoint x="230" y="524"/>
                            <mxPoint x="230" y="460"/>
                            <mxPoint x="421" y="460"/>
                        </Array>
                    </mxGeometry>
                </mxCell>
                <mxCell id="2" value="schema-registry" style="rounded=1;whiteSpace=wrap;html=1;" vertex="1" parent="1">
                    <mxGeometry x="195" y="524" width="120" height="60" as="geometry"/>
                </mxCell>
                <mxCell id="3" value="" style="sketch=0;aspect=fixed;html=1;points=[];align=center;image;fontSize=12;image=img/lib/mscae/Docker.svg;" vertex="1" parent="1">
                    <mxGeometry x="200" y="529" width="24.39" height="20" as="geometry"/>
                </mxCell>
                <mxCell id="4" value="" style="shape=flexArrow;endArrow=classic;html=1;rounded=0;dashed=1;entryX=0.5;entryY=0;entryDx=0;entryDy=0;" edge="1" parent="1">
                    <mxGeometry width="50" height="50" relative="1" as="geometry">
                        <mxPoint x="291" y="488.9999999999999" as="sourcePoint"/>
                        <mxPoint x="291.19000000000005" y="529.0000000000001" as="targetPoint"/>
                    </mxGeometry>
                </mxCell>
                <mxCell id="5" value="port 8081" style="text;html=1;strokeColor=none;fillColor=none;align=center;verticalAlign=middle;whiteSpace=wrap;rounded=0;" vertex="1" parent="1">
                    <mxGeometry x="265" y="460" width="50" height="30" as="geometry"/>
                </mxCell>
                <mxCell id="6" value="8081" style="text;html=1;strokeColor=none;fillColor=none;align=center;verticalAlign=middle;whiteSpace=wrap;rounded=0;" vertex="1" parent="1">
                    <mxGeometry x="260" y="520" width="60" height="30" as="geometry"/>
                </mxCell>
                <mxCell id="12" style="edgeStyle=orthogonalEdgeStyle;html=1;exitX=0;exitY=0.5;exitDx=0;exitDy=0;" edge="1" parent="1" source="7" target="2">
                    <mxGeometry relative="1" as="geometry"/>
                </mxCell>
                <mxCell id="18" style="edgeStyle=orthogonalEdgeStyle;html=1;exitX=0.5;exitY=0;exitDx=0;exitDy=0;entryX=0.352;entryY=1.058;entryDx=0;entryDy=0;entryPerimeter=0;dashed=1;" edge="1" parent="1" source="7" target="iMErdK-eLQG_Rrcvuobb-4">
                    <mxGeometry relative="1" as="geometry"/>
                </mxCell>
                <mxCell id="19" style="edgeStyle=orthogonalEdgeStyle;html=1;exitX=0.5;exitY=0;exitDx=0;exitDy=0;entryX=0.868;entryY=0.985;entryDx=0;entryDy=0;entryPerimeter=0;dashed=1;" edge="1" parent="1" source="7" target="iMErdK-eLQG_Rrcvuobb-3">
                    <mxGeometry relative="1" as="geometry"/>
                </mxCell>
                <mxCell id="20" style="edgeStyle=orthogonalEdgeStyle;html=1;exitX=0.5;exitY=0;exitDx=0;exitDy=0;entryX=0.873;entryY=1.058;entryDx=0;entryDy=0;entryPerimeter=0;dashed=1;" edge="1" parent="1" source="7" target="iMErdK-eLQG_Rrcvuobb-1">
                    <mxGeometry relative="1" as="geometry">
                        <Array as="points">
                            <mxPoint x="430" y="500"/>
                            <mxPoint x="245" y="500"/>
                        </Array>
                    </mxGeometry>
                </mxCell>
                <mxCell id="7" value="rest-proxy" style="rounded=1;whiteSpace=wrap;html=1;" vertex="1" parent="1">
                    <mxGeometry x="370" y="524" width="120" height="60" as="geometry"/>
                </mxCell>
                <mxCell id="8" value="" style="sketch=0;aspect=fixed;html=1;points=[];align=center;image;fontSize=12;image=img/lib/mscae/Docker.svg;" vertex="1" parent="1">
                    <mxGeometry x="375" y="529" width="24.39" height="20" as="geometry"/>
                </mxCell>
                <mxCell id="9" value="" style="shape=flexArrow;endArrow=classic;html=1;rounded=0;dashed=1;entryX=0.5;entryY=0;entryDx=0;entryDy=0;" edge="1" parent="1">
                    <mxGeometry width="50" height="50" relative="1" as="geometry">
                        <mxPoint x="466" y="488.9999999999999" as="sourcePoint"/>
                        <mxPoint x="466.19000000000005" y="529.0000000000001" as="targetPoint"/>
                    </mxGeometry>
                </mxCell>
                <mxCell id="10" value="port 8082" style="text;html=1;strokeColor=none;fillColor=none;align=center;verticalAlign=middle;whiteSpace=wrap;rounded=0;" vertex="1" parent="1">
                    <mxGeometry x="440" y="460" width="50" height="30" as="geometry"/>
                </mxCell>
                <mxCell id="11" value="8082" style="text;html=1;strokeColor=none;fillColor=none;align=center;verticalAlign=middle;whiteSpace=wrap;rounded=0;" vertex="1" parent="1">
                    <mxGeometry x="435" y="520" width="60" height="30" as="geometry"/>
                </mxCell>
            </root>
        </mxGraphModel>
    </diagram>
    <diagram id="PzvFDjlK8IA-W3NOk99B" name="Page-2">
        <mxGraphModel dx="1358" dy="752" grid="1" gridSize="10" guides="1" tooltips="1" connect="1" arrows="1" fold="1" page="0" pageScale="1" pageWidth="850" pageHeight="1100" math="0" shadow="0">
            <root>
                <mxCell id="0"/>
                <mxCell id="1" parent="0"/>
                <mxCell id="pv3WKwKZYlG93iTxQAby-16" value="" style="rounded=0;whiteSpace=wrap;html=1;fontSize=9;fillColor=#f5f5f5;fontColor=#333333;strokeColor=#666666;" vertex="1" parent="1">
                    <mxGeometry x="140" y="255" width="440" height="285" as="geometry"/>
                </mxCell>
                <mxCell id="pv3WKwKZYlG93iTxQAby-1" value="kafka-1" style="rounded=1;whiteSpace=wrap;html=1;" vertex="1" parent="1">
                    <mxGeometry x="170" y="409" width="120" height="60" as="geometry"/>
                </mxCell>
                <mxCell id="pv3WKwKZYlG93iTxQAby-2" style="edgeStyle=orthogonalEdgeStyle;rounded=0;orthogonalLoop=1;jettySize=auto;html=1;exitX=0.25;exitY=1;exitDx=0;exitDy=0;entryX=0.75;entryY=0;entryDx=0;entryDy=0;" edge="1" parent="1" source="pv3WKwKZYlG93iTxQAby-5" target="pv3WKwKZYlG93iTxQAby-1">
                    <mxGeometry relative="1" as="geometry"/>
                </mxCell>
                <mxCell id="pv3WKwKZYlG93iTxQAby-3" style="edgeStyle=orthogonalEdgeStyle;rounded=0;orthogonalLoop=1;jettySize=auto;html=1;exitX=0.5;exitY=1;exitDx=0;exitDy=0;entryX=0.5;entryY=0;entryDx=0;entryDy=0;" edge="1" parent="1" source="pv3WKwKZYlG93iTxQAby-5" target="pv3WKwKZYlG93iTxQAby-6">
                    <mxGeometry relative="1" as="geometry"/>
                </mxCell>
                <mxCell id="pv3WKwKZYlG93iTxQAby-4" style="edgeStyle=orthogonalEdgeStyle;rounded=0;orthogonalLoop=1;jettySize=auto;html=1;exitX=0.75;exitY=1;exitDx=0;exitDy=0;entryX=0.5;entryY=0;entryDx=0;entryDy=0;" edge="1" parent="1" source="pv3WKwKZYlG93iTxQAby-5" target="pv3WKwKZYlG93iTxQAby-7">
                    <mxGeometry relative="1" as="geometry"/>
                </mxCell>
                <mxCell id="pv3WKwKZYlG93iTxQAby-5" value="zookeeper-1" style="rounded=1;whiteSpace=wrap;html=1;" vertex="1" parent="1">
                    <mxGeometry x="300" y="309" width="120" height="60" as="geometry"/>
                </mxCell>
                <mxCell id="pv3WKwKZYlG93iTxQAby-6" value="kafka-2" style="rounded=1;whiteSpace=wrap;html=1;" vertex="1" parent="1">
                    <mxGeometry x="300" y="409" width="120" height="60" as="geometry"/>
                </mxCell>
                <mxCell id="pv3WKwKZYlG93iTxQAby-7" value="kafka-3" style="rounded=1;whiteSpace=wrap;html=1;" vertex="1" parent="1">
                    <mxGeometry x="430" y="409" width="120" height="60" as="geometry"/>
                </mxCell>
                <mxCell id="pv3WKwKZYlG93iTxQAby-8" value="" style="sketch=0;aspect=fixed;html=1;points=[];align=center;image;fontSize=12;image=img/lib/mscae/Docker.svg;" vertex="1" parent="1">
                    <mxGeometry x="260" y="415" width="24.39" height="20" as="geometry"/>
                </mxCell>
                <mxCell id="pv3WKwKZYlG93iTxQAby-9" value="" style="sketch=0;aspect=fixed;html=1;points=[];align=center;image;fontSize=12;image=img/lib/mscae/Docker.svg;" vertex="1" parent="1">
                    <mxGeometry x="303" y="415" width="24.39" height="20" as="geometry"/>
                </mxCell>
                <mxCell id="pv3WKwKZYlG93iTxQAby-10" value="" style="sketch=0;aspect=fixed;html=1;points=[];align=center;image;fontSize=12;image=img/lib/mscae/Docker.svg;" vertex="1" parent="1">
                    <mxGeometry x="304" y="315" width="24.39" height="20" as="geometry"/>
                </mxCell>
                <mxCell id="pv3WKwKZYlG93iTxQAby-11" value="" style="sketch=0;aspect=fixed;html=1;points=[];align=center;image;fontSize=12;image=img/lib/mscae/Docker.svg;" vertex="1" parent="1">
                    <mxGeometry x="432.79999999999995" y="415" width="24.39" height="20" as="geometry"/>
                </mxCell>
                <mxCell id="pv3WKwKZYlG93iTxQAby-13" value="test-topic" style="shape=cylinder3;whiteSpace=wrap;html=1;boundedLbl=1;backgroundOutline=1;size=5.200000000000102;fontSize=9;fillColor=#f8cecc;strokeColor=#b85450;" vertex="1" parent="1">
                    <mxGeometry x="199.39" y="490" width="105" height="40" as="geometry"/>
                </mxCell>
                <mxCell id="pv3WKwKZYlG93iTxQAby-17" value="Kafka Cluster" style="text;html=1;strokeColor=none;fillColor=none;align=center;verticalAlign=middle;whiteSpace=wrap;rounded=0;fontSize=9;" vertex="1" parent="1">
                    <mxGeometry x="519" y="255" width="60" height="30" as="geometry"/>
                </mxCell>
                <mxCell id="ieklSCvzwvXhDXg3WENt-3" style="edgeStyle=orthogonalEdgeStyle;rounded=0;orthogonalLoop=1;jettySize=auto;html=1;exitX=0.5;exitY=1;exitDx=0;exitDy=0;entryX=0.25;entryY=0;entryDx=0;entryDy=0;dashed=1;fontSize=9;" edge="1" parent="1" source="ieklSCvzwvXhDXg3WENt-1" target="pv3WKwKZYlG93iTxQAby-1">
                    <mxGeometry relative="1" as="geometry"/>
                </mxCell>
                <mxCell id="ieklSCvzwvXhDXg3WENt-6" style="edgeStyle=orthogonalEdgeStyle;rounded=0;orthogonalLoop=1;jettySize=auto;html=1;exitX=0.75;exitY=1;exitDx=0;exitDy=0;dashed=1;fontSize=9;" edge="1" parent="1" source="ieklSCvzwvXhDXg3WENt-1" target="pv3WKwKZYlG93iTxQAby-1">
                    <mxGeometry relative="1" as="geometry">
                        <Array as="points">
                            <mxPoint x="260" y="350"/>
                            <mxPoint x="230" y="350"/>
                        </Array>
                    </mxGeometry>
                </mxCell>
                <mxCell id="ieklSCvzwvXhDXg3WENt-1" value="kafkacat" style="rounded=1;whiteSpace=wrap;html=1;" vertex="1" parent="1">
                    <mxGeometry x="170" y="150" width="120" height="60" as="geometry"/>
                </mxCell>
                <mxCell id="ieklSCvzwvXhDXg3WENt-2" value="" style="sketch=0;aspect=fixed;html=1;points=[];align=center;image;fontSize=12;image=img/lib/mscae/Docker.svg;" vertex="1" parent="1">
                    <mxGeometry x="175" y="155" width="24.39" height="20" as="geometry"/>
                </mxCell>
                <mxCell id="ieklSCvzwvXhDXg3WENt-4" style="edgeStyle=orthogonalEdgeStyle;rounded=0;orthogonalLoop=1;jettySize=auto;html=1;exitX=0.25;exitY=0;exitDx=0;exitDy=0;entryX=0.145;entryY=0;entryDx=0;entryDy=1.5080000000000295;entryPerimeter=0;dashed=1;fontSize=9;" edge="1" parent="1" source="pv3WKwKZYlG93iTxQAby-1" target="pv3WKwKZYlG93iTxQAby-13">
                    <mxGeometry relative="1" as="geometry">
                        <Array as="points">
                            <mxPoint x="200" y="460"/>
                            <mxPoint x="215" y="460"/>
                            <mxPoint x="215" y="492"/>
                        </Array>
                    </mxGeometry>
                </mxCell>
                <mxCell id="ieklSCvzwvXhDXg3WENt-5" value="&lt;div style=&quot;background-color: rgb(255, 255, 255); font-family: consolas, &amp;quot;courier new&amp;quot;, monospace; font-size: 10px; line-height: 19px;&quot;&gt;kafkacat -C -b kafka-1:19092 -t test-topic&lt;/div&gt;" style="text;html=1;strokeColor=none;fillColor=none;align=center;verticalAlign=middle;whiteSpace=wrap;rounded=0;fontSize=10;" vertex="1" parent="1">
                    <mxGeometry x="-14" y="210" width="247.4" height="30" as="geometry"/>
                </mxCell>
                <mxCell id="ieklSCvzwvXhDXg3WENt-7" style="edgeStyle=orthogonalEdgeStyle;rounded=0;orthogonalLoop=1;jettySize=auto;html=1;exitX=0.5;exitY=0;exitDx=0;exitDy=0;entryX=0.5;entryY=0;entryDx=0;entryDy=0;entryPerimeter=0;dashed=1;fontSize=9;" edge="1" parent="1" source="pv3WKwKZYlG93iTxQAby-1" target="pv3WKwKZYlG93iTxQAby-13">
                    <mxGeometry relative="1" as="geometry">
                        <Array as="points">
                            <mxPoint x="230" y="460"/>
                            <mxPoint x="252" y="460"/>
                        </Array>
                    </mxGeometry>
                </mxCell>
                <mxCell id="ieklSCvzwvXhDXg3WENt-8" value="&lt;div style=&quot;background-color: rgb(255, 255, 255); font-family: consolas, &amp;quot;courier new&amp;quot;, monospace; font-size: 10px; line-height: 19px;&quot;&gt;&lt;div style=&quot;font-family: consolas, &amp;quot;courier new&amp;quot;, monospace; font-size: 10px; line-height: 19px;&quot;&gt;kafkacat -P -b kafka-1:19092 -t test-topic&lt;/div&gt;&lt;/div&gt;" style="text;html=1;strokeColor=none;fillColor=none;align=center;verticalAlign=middle;whiteSpace=wrap;rounded=0;fontSize=10;" vertex="1" parent="1">
                    <mxGeometry x="254" y="212" width="263" height="30" as="geometry"/>
                </mxCell>
                <mxCell id="ieklSCvzwvXhDXg3WENt-9" value="test-topic" style="shape=cylinder3;whiteSpace=wrap;html=1;boundedLbl=1;backgroundOutline=1;size=5.200000000000102;fontSize=15;fillColor=#f8cecc;strokeColor=#b85450;" vertex="1" parent="1">
                    <mxGeometry x="210" y="820" width="170" height="130" as="geometry"/>
                </mxCell>
                <mxCell id="ieklSCvzwvXhDXg3WENt-20" style="edgeStyle=orthogonalEdgeStyle;rounded=0;orthogonalLoop=1;jettySize=auto;html=1;exitX=1.003;exitY=0.102;exitDx=0;exitDy=0;entryX=-0.006;entryY=0.166;entryDx=0;entryDy=0;entryPerimeter=0;dashed=1;fontSize=15;exitPerimeter=0;" edge="1" parent="1" source="ieklSCvzwvXhDXg3WENt-19" target="ieklSCvzwvXhDXg3WENt-9">
                    <mxGeometry relative="1" as="geometry">
                        <Array as="points">
                            <mxPoint x="80" y="850"/>
                            <mxPoint x="145" y="850"/>
                            <mxPoint x="145" y="842"/>
                        </Array>
                    </mxGeometry>
                </mxCell>
                <mxCell id="ieklSCvzwvXhDXg3WENt-19" value="Producer" style="rounded=0;whiteSpace=wrap;html=1;fontSize=15;" vertex="1" parent="1">
                    <mxGeometry x="-40" y="840" width="120" height="60" as="geometry"/>
                </mxCell>
                <mxCell id="ieklSCvzwvXhDXg3WENt-21" style="edgeStyle=orthogonalEdgeStyle;rounded=0;orthogonalLoop=1;jettySize=auto;html=1;exitX=1;exitY=0.5;exitDx=0;exitDy=0;entryX=0;entryY=0;entryDx=0;entryDy=94.89999999999995;entryPerimeter=0;dashed=1;fontSize=15;" edge="1" source="ieklSCvzwvXhDXg3WENt-22" parent="1">
                    <mxGeometry relative="1" as="geometry">
                        <mxPoint x="180" y="854.8999999999999" as="targetPoint"/>
                    </mxGeometry>
                </mxCell>
                <mxCell id="ieklSCvzwvXhDXg3WENt-22" value="Producer" style="rounded=0;whiteSpace=wrap;html=1;fontSize=15;" vertex="1" parent="1">
                    <mxGeometry x="-30" y="850" width="120" height="60" as="geometry"/>
                </mxCell>
                <mxCell id="ieklSCvzwvXhDXg3WENt-23" style="edgeStyle=orthogonalEdgeStyle;rounded=0;orthogonalLoop=1;jettySize=auto;html=1;exitX=1;exitY=0.5;exitDx=0;exitDy=0;entryX=0;entryY=0;entryDx=0;entryDy=94.89999999999995;entryPerimeter=0;dashed=1;fontSize=15;" edge="1" source="ieklSCvzwvXhDXg3WENt-24" parent="1">
                    <mxGeometry relative="1" as="geometry">
                        <mxPoint x="190" y="864.8999999999999" as="targetPoint"/>
                    </mxGeometry>
                </mxCell>
                <mxCell id="ieklSCvzwvXhDXg3WENt-24" value="Producer" style="rounded=0;whiteSpace=wrap;html=1;fontSize=15;" vertex="1" parent="1">
                    <mxGeometry x="-20" y="860" width="120" height="60" as="geometry"/>
                </mxCell>
                <mxCell id="ieklSCvzwvXhDXg3WENt-25" style="edgeStyle=orthogonalEdgeStyle;rounded=0;orthogonalLoop=1;jettySize=auto;html=1;exitX=1;exitY=0.5;exitDx=0;exitDy=0;entryX=0;entryY=0;entryDx=0;entryDy=94.89999999999995;entryPerimeter=0;dashed=1;fontSize=15;" edge="1" source="ieklSCvzwvXhDXg3WENt-26" parent="1">
                    <mxGeometry relative="1" as="geometry">
                        <mxPoint x="200" y="874.8999999999999" as="targetPoint"/>
                    </mxGeometry>
                </mxCell>
                <mxCell id="ieklSCvzwvXhDXg3WENt-26" value="Producer" style="rounded=0;whiteSpace=wrap;html=1;fontSize=15;" vertex="1" parent="1">
                    <mxGeometry x="-10" y="870" width="120" height="60" as="geometry"/>
                </mxCell>
                <mxCell id="ieklSCvzwvXhDXg3WENt-27" style="edgeStyle=orthogonalEdgeStyle;rounded=0;orthogonalLoop=1;jettySize=auto;html=1;exitX=1;exitY=0.5;exitDx=0;exitDy=0;entryX=0;entryY=0;entryDx=0;entryDy=94.89999999999995;entryPerimeter=0;dashed=1;fontSize=15;" edge="1" source="ieklSCvzwvXhDXg3WENt-28" parent="1">
                    <mxGeometry relative="1" as="geometry">
                        <mxPoint x="210" y="884.8999999999999" as="targetPoint"/>
                    </mxGeometry>
                </mxCell>
                <mxCell id="ieklSCvzwvXhDXg3WENt-28" value="Producer" style="rounded=0;whiteSpace=wrap;html=1;fontSize=15;" vertex="1" parent="1">
                    <mxGeometry y="880" width="120" height="60" as="geometry"/>
                </mxCell>
                <mxCell id="ieklSCvzwvXhDXg3WENt-29" style="edgeStyle=orthogonalEdgeStyle;rounded=0;orthogonalLoop=1;jettySize=auto;html=1;exitX=1;exitY=0.5;exitDx=0;exitDy=0;entryX=0;entryY=0;entryDx=0;entryDy=94.89999999999995;entryPerimeter=0;dashed=1;fontSize=15;" edge="1" source="ieklSCvzwvXhDXg3WENt-30" parent="1">
                    <mxGeometry relative="1" as="geometry">
                        <mxPoint x="220" y="894.8999999999999" as="targetPoint"/>
                    </mxGeometry>
                </mxCell>
                <mxCell id="ieklSCvzwvXhDXg3WENt-30" value="Producer" style="rounded=0;whiteSpace=wrap;html=1;fontSize=15;" vertex="1" parent="1">
                    <mxGeometry x="10" y="890" width="120" height="60" as="geometry"/>
                </mxCell>
                <mxCell id="ieklSCvzwvXhDXg3WENt-31" style="edgeStyle=orthogonalEdgeStyle;rounded=0;orthogonalLoop=1;jettySize=auto;html=1;exitX=1;exitY=0.5;exitDx=0;exitDy=0;entryX=0;entryY=0;entryDx=0;entryDy=94.89999999999995;entryPerimeter=0;dashed=1;fontSize=15;" edge="1" source="ieklSCvzwvXhDXg3WENt-32" parent="1">
                    <mxGeometry relative="1" as="geometry">
                        <mxPoint x="230" y="904.8999999999999" as="targetPoint"/>
                    </mxGeometry>
                </mxCell>
                <mxCell id="ieklSCvzwvXhDXg3WENt-32" value="Producer" style="rounded=0;whiteSpace=wrap;html=1;fontSize=15;" vertex="1" parent="1">
                    <mxGeometry x="20" y="900" width="120" height="60" as="geometry"/>
                </mxCell>
                <mxCell id="ieklSCvzwvXhDXg3WENt-33" style="edgeStyle=orthogonalEdgeStyle;rounded=0;orthogonalLoop=1;jettySize=auto;html=1;exitX=1;exitY=0.5;exitDx=0;exitDy=0;entryX=0;entryY=0;entryDx=0;entryDy=94.89999999999995;entryPerimeter=0;dashed=1;fontSize=15;" edge="1" source="ieklSCvzwvXhDXg3WENt-34" parent="1">
                    <mxGeometry relative="1" as="geometry">
                        <mxPoint x="240" y="914.8999999999999" as="targetPoint"/>
                    </mxGeometry>
                </mxCell>
                <mxCell id="ieklSCvzwvXhDXg3WENt-34" value="Producer" style="rounded=0;whiteSpace=wrap;html=1;fontSize=15;" vertex="1" parent="1">
                    <mxGeometry x="30" y="910" width="120" height="60" as="geometry"/>
                </mxCell>
                <mxCell id="ieklSCvzwvXhDXg3WENt-35" value="Producing I, II, III, ... ,IX, X to test-topic" style="shape=callout;whiteSpace=wrap;html=1;perimeter=calloutPerimeter;fontSize=15;" vertex="1" parent="1">
                    <mxGeometry x="-5" y="750" width="150" height="80" as="geometry"/>
                </mxCell>
                <mxCell id="ieklSCvzwvXhDXg3WENt-36" value="Consumer" style="rounded=0;whiteSpace=wrap;html=1;fontSize=15;fillColor=#e1d5e7;strokeColor=#9673a6;" vertex="1" parent="1">
                    <mxGeometry x="480" y="940" width="120" height="60" as="geometry"/>
                </mxCell>
                <mxCell id="ieklSCvzwvXhDXg3WENt-37" value="Consumer" style="rounded=0;whiteSpace=wrap;html=1;fontSize=15;fillColor=#e1d5e7;strokeColor=#9673a6;" vertex="1" parent="1">
                    <mxGeometry x="480" y="830" width="120" height="60" as="geometry"/>
                </mxCell>
                <mxCell id="ieklSCvzwvXhDXg3WENt-38" value="" style="curved=1;endArrow=classic;html=1;rounded=0;dashed=1;fontSize=15;entryX=0;entryY=0.25;entryDx=0;entryDy=0;exitX=0;exitY=0.5;exitDx=0;exitDy=0;" edge="1" parent="1" source="ieklSCvzwvXhDXg3WENt-37" target="ieklSCvzwvXhDXg3WENt-37">
                    <mxGeometry width="50" height="50" relative="1" as="geometry">
                        <mxPoint x="300" y="860" as="sourcePoint"/>
                        <mxPoint x="350" y="810" as="targetPoint"/>
                        <Array as="points">
                            <mxPoint x="390" y="870"/>
                            <mxPoint x="350" y="860"/>
                        </Array>
                    </mxGeometry>
                </mxCell>
                <mxCell id="ieklSCvzwvXhDXg3WENt-39" value="" style="curved=1;endArrow=classic;html=1;rounded=0;dashed=1;fontSize=15;entryX=0;entryY=0.25;entryDx=0;entryDy=0;exitX=0;exitY=0.5;exitDx=0;exitDy=0;" edge="1" parent="1" source="ieklSCvzwvXhDXg3WENt-36" target="ieklSCvzwvXhDXg3WENt-36">
                    <mxGeometry width="50" height="50" relative="1" as="geometry">
                        <mxPoint x="490" y="870" as="sourcePoint"/>
                        <mxPoint x="490" y="855" as="targetPoint"/>
                        <Array as="points">
                            <mxPoint x="380" y="900"/>
                            <mxPoint x="360" y="870"/>
                        </Array>
                    </mxGeometry>
                </mxCell>
                <mxCell id="ieklSCvzwvXhDXg3WENt-40" value="Consuming I, II, III, ... ,IX, X from test-topic" style="shape=callout;whiteSpace=wrap;html=1;perimeter=calloutPerimeter;fontSize=15;" vertex="1" parent="1">
                    <mxGeometry x="360" y="770" width="150" height="80" as="geometry"/>
                </mxCell>
                <mxCell id="ieklSCvzwvXhDXg3WENt-41" value="" style="shape=callout;whiteSpace=wrap;html=1;perimeter=calloutPerimeter;fontSize=15;rotation=-180;" vertex="1" parent="1">
                    <mxGeometry x="320" y="910" width="150" height="80" as="geometry"/>
                </mxCell>
                <mxCell id="ieklSCvzwvXhDXg3WENt-42" value="Consuming I, II, III, ... ,IX, X from test-topic" style="text;html=1;strokeColor=none;fillColor=none;align=center;verticalAlign=middle;whiteSpace=wrap;rounded=0;fontSize=15;" vertex="1" parent="1">
                    <mxGeometry x="316" y="949" width="160" height="30" as="geometry"/>
                </mxCell>
            </root>
        </mxGraphModel>
    </diagram>
    <diagram id="KNLirzUIWOmdQEddF3WY" name="Page-3">
        <mxGraphModel dx="1416" dy="618" grid="1" gridSize="10" guides="1" tooltips="1" connect="1" arrows="1" fold="1" page="0" pageScale="1" pageWidth="850" pageHeight="1100" math="0" shadow="0">
            <root>
                <mxCell id="0"/>
                <mxCell id="1" parent="0"/>
                <mxCell id="tQh6TJB_D5dMbdzc7nSE-55" value="" style="rounded=0;whiteSpace=wrap;html=1;fontSize=15;fillColor=#ffe6cc;strokeColor=#d79b00;" vertex="1" parent="1">
                    <mxGeometry x="255" y="730" width="190" height="240" as="geometry"/>
                </mxCell>
                <mxCell id="tQh6TJB_D5dMbdzc7nSE-57" value="Consumer Group myTeam" style="text;html=1;strokeColor=none;fillColor=none;align=center;verticalAlign=middle;whiteSpace=wrap;rounded=0;fontSize=15;" vertex="1" parent="1">
                    <mxGeometry x="263" y="730" width="180" height="30" as="geometry"/>
                </mxCell>
                <mxCell id="tQh6TJB_D5dMbdzc7nSE-53" value="" style="rounded=0;whiteSpace=wrap;html=1;fontSize=15;fillColor=#ffe6cc;strokeColor=#d79b00;" vertex="1" parent="1">
                    <mxGeometry x="270" y="360" width="190" height="160" as="geometry"/>
                </mxCell>
                <mxCell id="tQh6TJB_D5dMbdzc7nSE-1" value="test-topic" style="shape=cylinder3;whiteSpace=wrap;html=1;boundedLbl=1;backgroundOutline=1;size=5.200000000000102;fontSize=15;fillColor=#f8cecc;strokeColor=#b85450;" vertex="1" parent="1">
                    <mxGeometry x="40" y="400" width="170" height="130" as="geometry"/>
                </mxCell>
                <mxCell id="tQh6TJB_D5dMbdzc7nSE-2" style="edgeStyle=orthogonalEdgeStyle;rounded=0;orthogonalLoop=1;jettySize=auto;html=1;exitX=1.003;exitY=0.102;exitDx=0;exitDy=0;entryX=-0.006;entryY=0.166;entryDx=0;entryDy=0;entryPerimeter=0;dashed=1;fontSize=15;exitPerimeter=0;" edge="1" parent="1" source="tQh6TJB_D5dMbdzc7nSE-3" target="tQh6TJB_D5dMbdzc7nSE-1">
                    <mxGeometry relative="1" as="geometry">
                        <Array as="points">
                            <mxPoint x="-90" y="430"/>
                            <mxPoint x="-50" y="430"/>
                            <mxPoint x="-50" y="422"/>
                        </Array>
                    </mxGeometry>
                </mxCell>
                <mxCell id="tQh6TJB_D5dMbdzc7nSE-3" value="Producer" style="rounded=0;whiteSpace=wrap;html=1;fontSize=15;" vertex="1" parent="1">
                    <mxGeometry x="-210" y="420" width="120" height="60" as="geometry"/>
                </mxCell>
                <mxCell id="tQh6TJB_D5dMbdzc7nSE-4" style="edgeStyle=orthogonalEdgeStyle;rounded=0;orthogonalLoop=1;jettySize=auto;html=1;exitX=1;exitY=0.5;exitDx=0;exitDy=0;entryX=0;entryY=0.231;entryDx=0;entryDy=0;entryPerimeter=0;dashed=1;fontSize=15;" edge="1" parent="1" source="tQh6TJB_D5dMbdzc7nSE-5" target="tQh6TJB_D5dMbdzc7nSE-1">
                    <mxGeometry relative="1" as="geometry">
                        <mxPoint x="10" y="434.89999999999986" as="targetPoint"/>
                    </mxGeometry>
                </mxCell>
                <mxCell id="tQh6TJB_D5dMbdzc7nSE-5" value="Producer" style="rounded=0;whiteSpace=wrap;html=1;fontSize=15;" vertex="1" parent="1">
                    <mxGeometry x="-200" y="430" width="120" height="60" as="geometry"/>
                </mxCell>
                <mxCell id="tQh6TJB_D5dMbdzc7nSE-6" style="edgeStyle=orthogonalEdgeStyle;rounded=0;orthogonalLoop=1;jettySize=auto;html=1;exitX=1;exitY=0.5;exitDx=0;exitDy=0;entryX=-0.008;entryY=0.301;entryDx=0;entryDy=0;entryPerimeter=0;dashed=1;fontSize=15;" edge="1" parent="1" source="tQh6TJB_D5dMbdzc7nSE-7" target="tQh6TJB_D5dMbdzc7nSE-1">
                    <mxGeometry relative="1" as="geometry">
                        <mxPoint x="20" y="444.89999999999986" as="targetPoint"/>
                    </mxGeometry>
                </mxCell>
                <mxCell id="tQh6TJB_D5dMbdzc7nSE-7" value="Producer" style="rounded=0;whiteSpace=wrap;html=1;fontSize=15;" vertex="1" parent="1">
                    <mxGeometry x="-190" y="440" width="120" height="60" as="geometry"/>
                </mxCell>
                <mxCell id="tQh6TJB_D5dMbdzc7nSE-8" style="edgeStyle=orthogonalEdgeStyle;rounded=0;orthogonalLoop=1;jettySize=auto;html=1;exitX=1;exitY=0.5;exitDx=0;exitDy=0;entryX=-0.002;entryY=0.395;entryDx=0;entryDy=0;entryPerimeter=0;dashed=1;fontSize=15;" edge="1" parent="1" source="tQh6TJB_D5dMbdzc7nSE-9" target="tQh6TJB_D5dMbdzc7nSE-1">
                    <mxGeometry relative="1" as="geometry">
                        <mxPoint x="30" y="454.89999999999986" as="targetPoint"/>
                    </mxGeometry>
                </mxCell>
                <mxCell id="tQh6TJB_D5dMbdzc7nSE-9" value="Producer" style="rounded=0;whiteSpace=wrap;html=1;fontSize=15;" vertex="1" parent="1">
                    <mxGeometry x="-180" y="450" width="120" height="60" as="geometry"/>
                </mxCell>
                <mxCell id="tQh6TJB_D5dMbdzc7nSE-10" style="edgeStyle=orthogonalEdgeStyle;rounded=0;orthogonalLoop=1;jettySize=auto;html=1;exitX=1;exitY=0.5;exitDx=0;exitDy=0;entryX=0;entryY=0;entryDx=0;entryDy=94.89999999999995;entryPerimeter=0;dashed=1;fontSize=15;" edge="1" parent="1" source="tQh6TJB_D5dMbdzc7nSE-11">
                    <mxGeometry relative="1" as="geometry">
                        <mxPoint x="40" y="464.89999999999986" as="targetPoint"/>
                    </mxGeometry>
                </mxCell>
                <mxCell id="tQh6TJB_D5dMbdzc7nSE-11" value="Producer" style="rounded=0;whiteSpace=wrap;html=1;fontSize=15;" vertex="1" parent="1">
                    <mxGeometry x="-170" y="460" width="120" height="60" as="geometry"/>
                </mxCell>
                <mxCell id="tQh6TJB_D5dMbdzc7nSE-12" style="edgeStyle=orthogonalEdgeStyle;rounded=0;orthogonalLoop=1;jettySize=auto;html=1;exitX=1;exitY=0.5;exitDx=0;exitDy=0;dashed=1;fontSize=15;" edge="1" parent="1" source="tQh6TJB_D5dMbdzc7nSE-13">
                    <mxGeometry relative="1" as="geometry">
                        <mxPoint x="40" y="475" as="targetPoint"/>
                        <Array as="points">
                            <mxPoint x="10" y="500"/>
                            <mxPoint x="10" y="475"/>
                        </Array>
                    </mxGeometry>
                </mxCell>
                <mxCell id="tQh6TJB_D5dMbdzc7nSE-13" value="Producer" style="rounded=0;whiteSpace=wrap;html=1;fontSize=15;" vertex="1" parent="1">
                    <mxGeometry x="-160" y="470" width="120" height="60" as="geometry"/>
                </mxCell>
                <mxCell id="tQh6TJB_D5dMbdzc7nSE-14" style="edgeStyle=orthogonalEdgeStyle;rounded=0;orthogonalLoop=1;jettySize=auto;html=1;exitX=1;exitY=0.5;exitDx=0;exitDy=0;entryX=0.004;entryY=0.66;entryDx=0;entryDy=0;entryPerimeter=0;dashed=1;fontSize=15;" edge="1" parent="1" source="tQh6TJB_D5dMbdzc7nSE-15" target="tQh6TJB_D5dMbdzc7nSE-1">
                    <mxGeometry relative="1" as="geometry">
                        <mxPoint x="60" y="484.89999999999986" as="targetPoint"/>
                        <Array as="points">
                            <mxPoint x="20" y="510"/>
                            <mxPoint x="20" y="486"/>
                        </Array>
                    </mxGeometry>
                </mxCell>
                <mxCell id="tQh6TJB_D5dMbdzc7nSE-15" value="Producer" style="rounded=0;whiteSpace=wrap;html=1;fontSize=15;" vertex="1" parent="1">
                    <mxGeometry x="-150" y="480" width="120" height="60" as="geometry"/>
                </mxCell>
                <mxCell id="tQh6TJB_D5dMbdzc7nSE-16" style="edgeStyle=orthogonalEdgeStyle;rounded=0;orthogonalLoop=1;jettySize=auto;html=1;exitX=1;exitY=0.5;exitDx=0;exitDy=0;entryX=0;entryY=0;entryDx=0;entryDy=94.89999999999995;entryPerimeter=0;dashed=1;fontSize=15;" edge="1" parent="1" source="tQh6TJB_D5dMbdzc7nSE-17" target="tQh6TJB_D5dMbdzc7nSE-1">
                    <mxGeometry relative="1" as="geometry">
                        <mxPoint x="70" y="494.89999999999986" as="targetPoint"/>
                        <Array as="points">
                            <mxPoint x="30" y="520"/>
                            <mxPoint x="30" y="495"/>
                        </Array>
                    </mxGeometry>
                </mxCell>
                <mxCell id="tQh6TJB_D5dMbdzc7nSE-17" value="Producer A" style="rounded=0;whiteSpace=wrap;html=1;fontSize=15;" vertex="1" parent="1">
                    <mxGeometry x="-140" y="490" width="120" height="60" as="geometry"/>
                </mxCell>
                <mxCell id="tQh6TJB_D5dMbdzc7nSE-18" value="Producing 1,2,3, ..,9, 10 to test-topic" style="shape=callout;whiteSpace=wrap;html=1;perimeter=calloutPerimeter;fontSize=15;" vertex="1" parent="1">
                    <mxGeometry x="-217.5" y="330" width="175" height="80" as="geometry"/>
                </mxCell>
                <mxCell id="tQh6TJB_D5dMbdzc7nSE-20" value="Consumer" style="rounded=0;whiteSpace=wrap;html=1;fontSize=15;fillColor=#e1d5e7;strokeColor=#9673a6;" vertex="1" parent="1">
                    <mxGeometry x="310" y="410" width="120" height="60" as="geometry"/>
                </mxCell>
                <mxCell id="tQh6TJB_D5dMbdzc7nSE-26" value="partition 0" style="rounded=1;whiteSpace=wrap;html=1;fontSize=15;" vertex="1" parent="1">
                    <mxGeometry x="64" y="424" width="120" height="30" as="geometry"/>
                </mxCell>
                <mxCell id="tQh6TJB_D5dMbdzc7nSE-27" value="partition 2" style="rounded=1;whiteSpace=wrap;html=1;fontSize=15;" vertex="1" parent="1">
                    <mxGeometry x="65" y="490" width="120" height="30" as="geometry"/>
                </mxCell>
                <mxCell id="tQh6TJB_D5dMbdzc7nSE-28" value="test-topic" style="shape=cylinder3;whiteSpace=wrap;html=1;boundedLbl=1;backgroundOutline=1;size=5.200000000000102;fontSize=15;fillColor=#f8cecc;strokeColor=#b85450;" vertex="1" parent="1">
                    <mxGeometry x="20" y="760" width="170" height="130" as="geometry"/>
                </mxCell>
                <mxCell id="tQh6TJB_D5dMbdzc7nSE-29" style="edgeStyle=orthogonalEdgeStyle;rounded=0;orthogonalLoop=1;jettySize=auto;html=1;exitX=1.003;exitY=0.102;exitDx=0;exitDy=0;entryX=-0.006;entryY=0.166;entryDx=0;entryDy=0;entryPerimeter=0;dashed=1;fontSize=15;exitPerimeter=0;" edge="1" source="tQh6TJB_D5dMbdzc7nSE-30" target="tQh6TJB_D5dMbdzc7nSE-28" parent="1">
                    <mxGeometry relative="1" as="geometry">
                        <Array as="points">
                            <mxPoint x="-110" y="790"/>
                            <mxPoint x="-70" y="790"/>
                            <mxPoint x="-70" y="782"/>
                        </Array>
                    </mxGeometry>
                </mxCell>
                <mxCell id="tQh6TJB_D5dMbdzc7nSE-30" value="Producer" style="rounded=0;whiteSpace=wrap;html=1;fontSize=15;" vertex="1" parent="1">
                    <mxGeometry x="-230" y="780" width="120" height="60" as="geometry"/>
                </mxCell>
                <mxCell id="tQh6TJB_D5dMbdzc7nSE-31" style="edgeStyle=orthogonalEdgeStyle;rounded=0;orthogonalLoop=1;jettySize=auto;html=1;exitX=1;exitY=0.5;exitDx=0;exitDy=0;entryX=0;entryY=0.231;entryDx=0;entryDy=0;entryPerimeter=0;dashed=1;fontSize=15;" edge="1" source="tQh6TJB_D5dMbdzc7nSE-32" target="tQh6TJB_D5dMbdzc7nSE-28" parent="1">
                    <mxGeometry relative="1" as="geometry">
                        <mxPoint x="-10" y="794.8999999999999" as="targetPoint"/>
                    </mxGeometry>
                </mxCell>
                <mxCell id="tQh6TJB_D5dMbdzc7nSE-32" value="Producer" style="rounded=0;whiteSpace=wrap;html=1;fontSize=15;" vertex="1" parent="1">
                    <mxGeometry x="-220" y="790" width="120" height="60" as="geometry"/>
                </mxCell>
                <mxCell id="tQh6TJB_D5dMbdzc7nSE-33" style="edgeStyle=orthogonalEdgeStyle;rounded=0;orthogonalLoop=1;jettySize=auto;html=1;exitX=1;exitY=0.5;exitDx=0;exitDy=0;entryX=-0.008;entryY=0.301;entryDx=0;entryDy=0;entryPerimeter=0;dashed=1;fontSize=15;" edge="1" source="tQh6TJB_D5dMbdzc7nSE-34" target="tQh6TJB_D5dMbdzc7nSE-28" parent="1">
                    <mxGeometry relative="1" as="geometry">
                        <mxPoint y="804.8999999999999" as="targetPoint"/>
                    </mxGeometry>
                </mxCell>
                <mxCell id="tQh6TJB_D5dMbdzc7nSE-34" value="Producer" style="rounded=0;whiteSpace=wrap;html=1;fontSize=15;" vertex="1" parent="1">
                    <mxGeometry x="-210" y="800" width="120" height="60" as="geometry"/>
                </mxCell>
                <mxCell id="tQh6TJB_D5dMbdzc7nSE-35" style="edgeStyle=orthogonalEdgeStyle;rounded=0;orthogonalLoop=1;jettySize=auto;html=1;exitX=1;exitY=0.5;exitDx=0;exitDy=0;entryX=-0.002;entryY=0.395;entryDx=0;entryDy=0;entryPerimeter=0;dashed=1;fontSize=15;" edge="1" source="tQh6TJB_D5dMbdzc7nSE-36" target="tQh6TJB_D5dMbdzc7nSE-28" parent="1">
                    <mxGeometry relative="1" as="geometry">
                        <mxPoint x="10" y="814.8999999999999" as="targetPoint"/>
                    </mxGeometry>
                </mxCell>
                <mxCell id="tQh6TJB_D5dMbdzc7nSE-36" value="Producer" style="rounded=0;whiteSpace=wrap;html=1;fontSize=15;" vertex="1" parent="1">
                    <mxGeometry x="-200" y="810" width="120" height="60" as="geometry"/>
                </mxCell>
                <mxCell id="tQh6TJB_D5dMbdzc7nSE-37" style="edgeStyle=orthogonalEdgeStyle;rounded=0;orthogonalLoop=1;jettySize=auto;html=1;exitX=1;exitY=0.5;exitDx=0;exitDy=0;entryX=0;entryY=0;entryDx=0;entryDy=94.89999999999995;entryPerimeter=0;dashed=1;fontSize=15;" edge="1" source="tQh6TJB_D5dMbdzc7nSE-38" parent="1">
                    <mxGeometry relative="1" as="geometry">
                        <mxPoint x="20" y="824.8999999999999" as="targetPoint"/>
                    </mxGeometry>
                </mxCell>
                <mxCell id="tQh6TJB_D5dMbdzc7nSE-38" value="Producer" style="rounded=0;whiteSpace=wrap;html=1;fontSize=15;" vertex="1" parent="1">
                    <mxGeometry x="-190" y="820" width="120" height="60" as="geometry"/>
                </mxCell>
                <mxCell id="tQh6TJB_D5dMbdzc7nSE-39" style="edgeStyle=orthogonalEdgeStyle;rounded=0;orthogonalLoop=1;jettySize=auto;html=1;exitX=1;exitY=0.5;exitDx=0;exitDy=0;dashed=1;fontSize=15;" edge="1" source="tQh6TJB_D5dMbdzc7nSE-40" parent="1">
                    <mxGeometry relative="1" as="geometry">
                        <mxPoint x="20" y="835" as="targetPoint"/>
                        <Array as="points">
                            <mxPoint x="-10" y="860"/>
                            <mxPoint x="-10" y="835"/>
                        </Array>
                    </mxGeometry>
                </mxCell>
                <mxCell id="tQh6TJB_D5dMbdzc7nSE-40" value="Producer" style="rounded=0;whiteSpace=wrap;html=1;fontSize=15;" vertex="1" parent="1">
                    <mxGeometry x="-180" y="830" width="120" height="60" as="geometry"/>
                </mxCell>
                <mxCell id="tQh6TJB_D5dMbdzc7nSE-41" style="edgeStyle=orthogonalEdgeStyle;rounded=0;orthogonalLoop=1;jettySize=auto;html=1;exitX=1;exitY=0.5;exitDx=0;exitDy=0;entryX=0.004;entryY=0.66;entryDx=0;entryDy=0;entryPerimeter=0;dashed=1;fontSize=15;" edge="1" source="tQh6TJB_D5dMbdzc7nSE-42" target="tQh6TJB_D5dMbdzc7nSE-28" parent="1">
                    <mxGeometry relative="1" as="geometry">
                        <mxPoint x="40" y="844.8999999999999" as="targetPoint"/>
                        <Array as="points">
                            <mxPoint y="870"/>
                            <mxPoint y="846"/>
                        </Array>
                    </mxGeometry>
                </mxCell>
                <mxCell id="tQh6TJB_D5dMbdzc7nSE-42" value="Producer" style="rounded=0;whiteSpace=wrap;html=1;fontSize=15;" vertex="1" parent="1">
                    <mxGeometry x="-170" y="840" width="120" height="60" as="geometry"/>
                </mxCell>
                <mxCell id="tQh6TJB_D5dMbdzc7nSE-43" style="edgeStyle=orthogonalEdgeStyle;rounded=0;orthogonalLoop=1;jettySize=auto;html=1;exitX=1;exitY=0.5;exitDx=0;exitDy=0;entryX=0;entryY=0;entryDx=0;entryDy=94.89999999999995;entryPerimeter=0;dashed=1;fontSize=15;" edge="1" source="tQh6TJB_D5dMbdzc7nSE-44" target="tQh6TJB_D5dMbdzc7nSE-28" parent="1">
                    <mxGeometry relative="1" as="geometry">
                        <mxPoint x="50" y="854.8999999999999" as="targetPoint"/>
                        <Array as="points">
                            <mxPoint x="10" y="880"/>
                            <mxPoint x="10" y="855"/>
                        </Array>
                    </mxGeometry>
                </mxCell>
                <mxCell id="tQh6TJB_D5dMbdzc7nSE-44" value="Producer A" style="rounded=0;whiteSpace=wrap;html=1;fontSize=15;" vertex="1" parent="1">
                    <mxGeometry x="-160" y="850" width="120" height="60" as="geometry"/>
                </mxCell>
                <mxCell id="tQh6TJB_D5dMbdzc7nSE-45" value="Producing 1,2,3, ..,19, 20 to test-topic" style="shape=callout;whiteSpace=wrap;html=1;perimeter=calloutPerimeter;fontSize=15;" vertex="1" parent="1">
                    <mxGeometry x="-195" y="690" width="175" height="80" as="geometry"/>
                </mxCell>
                <mxCell id="tQh6TJB_D5dMbdzc7nSE-46" value="Consumer" style="rounded=0;whiteSpace=wrap;html=1;fontSize=15;fillColor=#e1d5e7;strokeColor=#9673a6;" vertex="1" parent="1">
                    <mxGeometry x="290" y="880" width="120" height="60" as="geometry"/>
                </mxCell>
                <mxCell id="tQh6TJB_D5dMbdzc7nSE-47" value="Consumer" style="rounded=0;whiteSpace=wrap;html=1;fontSize=15;fillColor=#e1d5e7;strokeColor=#9673a6;" vertex="1" parent="1">
                    <mxGeometry x="290" y="770" width="120" height="60" as="geometry"/>
                </mxCell>
                <mxCell id="tQh6TJB_D5dMbdzc7nSE-50" value="partition 0" style="rounded=1;whiteSpace=wrap;html=1;fontSize=15;" vertex="1" parent="1">
                    <mxGeometry x="44" y="784" width="120" height="30" as="geometry"/>
                </mxCell>
                <mxCell id="tQh6TJB_D5dMbdzc7nSE-51" value="partition 2" style="rounded=1;whiteSpace=wrap;html=1;fontSize=15;" vertex="1" parent="1">
                    <mxGeometry x="45" y="850" width="120" height="30" as="geometry"/>
                </mxCell>
                <mxCell id="tQh6TJB_D5dMbdzc7nSE-48" value="" style="curved=1;endArrow=classic;html=1;rounded=0;dashed=1;fontSize=15;entryX=0;entryY=0.25;entryDx=0;entryDy=0;exitX=0;exitY=0.5;exitDx=0;exitDy=0;" edge="1" source="tQh6TJB_D5dMbdzc7nSE-47" target="tQh6TJB_D5dMbdzc7nSE-47" parent="1">
                    <mxGeometry width="50" height="50" relative="1" as="geometry">
                        <mxPoint x="110" y="800" as="sourcePoint"/>
                        <mxPoint x="160" y="750" as="targetPoint"/>
                        <Array as="points">
                            <mxPoint x="160" y="810"/>
                            <mxPoint x="160" y="800"/>
                        </Array>
                    </mxGeometry>
                </mxCell>
                <mxCell id="tQh6TJB_D5dMbdzc7nSE-49" value="" style="curved=1;endArrow=classic;html=1;rounded=0;dashed=1;fontSize=15;entryX=0;entryY=0.25;entryDx=0;entryDy=0;exitX=0;exitY=0.5;exitDx=0;exitDy=0;" edge="1" source="tQh6TJB_D5dMbdzc7nSE-46" target="tQh6TJB_D5dMbdzc7nSE-46" parent="1">
                    <mxGeometry width="50" height="50" relative="1" as="geometry">
                        <mxPoint x="300" y="810" as="sourcePoint"/>
                        <mxPoint x="300" y="795" as="targetPoint"/>
                        <Array as="points">
                            <mxPoint x="170" y="880"/>
                            <mxPoint x="150" y="860"/>
                        </Array>
                    </mxGeometry>
                </mxCell>
                <mxCell id="tQh6TJB_D5dMbdzc7nSE-52" value="" style="curved=1;endArrow=classic;html=1;rounded=0;dashed=1;fontSize=15;entryX=0;entryY=0.75;entryDx=0;entryDy=0;exitX=-0.019;exitY=0.899;exitDx=0;exitDy=0;exitPerimeter=0;" edge="1" parent="1" source="tQh6TJB_D5dMbdzc7nSE-20" target="tQh6TJB_D5dMbdzc7nSE-20">
                    <mxGeometry width="50" height="50" relative="1" as="geometry">
                        <mxPoint x="310" y="545" as="sourcePoint"/>
                        <mxPoint x="310" y="530" as="targetPoint"/>
                        <Array as="points">
                            <mxPoint x="190" y="515"/>
                            <mxPoint x="170" y="495"/>
                        </Array>
                    </mxGeometry>
                </mxCell>
                <mxCell id="tQh6TJB_D5dMbdzc7nSE-21" value="" style="curved=1;endArrow=classic;html=1;rounded=0;dashed=1;fontSize=15;entryX=0;entryY=0.25;entryDx=0;entryDy=0;exitX=0;exitY=0.5;exitDx=0;exitDy=0;" edge="1" parent="1" source="tQh6TJB_D5dMbdzc7nSE-20" target="tQh6TJB_D5dMbdzc7nSE-20">
                    <mxGeometry width="50" height="50" relative="1" as="geometry">
                        <mxPoint x="130" y="440" as="sourcePoint"/>
                        <mxPoint x="180" y="390" as="targetPoint"/>
                        <Array as="points">
                            <mxPoint x="180" y="450"/>
                            <mxPoint x="180" y="440"/>
                        </Array>
                    </mxGeometry>
                </mxCell>
                <mxCell id="tQh6TJB_D5dMbdzc7nSE-54" value="Consumer Group myTeam" style="text;html=1;strokeColor=none;fillColor=none;align=center;verticalAlign=middle;whiteSpace=wrap;rounded=0;fontSize=15;" vertex="1" parent="1">
                    <mxGeometry x="278" y="360" width="180" height="30" as="geometry"/>
                </mxCell>
                <mxCell id="tQh6TJB_D5dMbdzc7nSE-58" value="" style="rounded=0;whiteSpace=wrap;html=1;fontSize=15;fillColor=#ffe6cc;strokeColor=#d79b00;" vertex="1" parent="1">
                    <mxGeometry x="270" y="1040" width="190" height="310" as="geometry"/>
                </mxCell>
                <mxCell id="tQh6TJB_D5dMbdzc7nSE-59" value="Consumer Group myTeam" style="text;html=1;strokeColor=none;fillColor=none;align=center;verticalAlign=middle;whiteSpace=wrap;rounded=0;fontSize=15;" vertex="1" parent="1">
                    <mxGeometry x="278" y="1040" width="180" height="30" as="geometry"/>
                </mxCell>
                <mxCell id="tQh6TJB_D5dMbdzc7nSE-60" value="test-topic" style="shape=cylinder3;whiteSpace=wrap;html=1;boundedLbl=1;backgroundOutline=1;size=5.200000000000102;fontSize=15;fillColor=#f8cecc;strokeColor=#b85450;" vertex="1" parent="1">
                    <mxGeometry x="35" y="1070" width="170" height="130" as="geometry"/>
                </mxCell>
                <mxCell id="tQh6TJB_D5dMbdzc7nSE-61" style="edgeStyle=orthogonalEdgeStyle;rounded=0;orthogonalLoop=1;jettySize=auto;html=1;exitX=1.003;exitY=0.102;exitDx=0;exitDy=0;entryX=-0.006;entryY=0.166;entryDx=0;entryDy=0;entryPerimeter=0;dashed=1;fontSize=15;exitPerimeter=0;" edge="1" parent="1" source="tQh6TJB_D5dMbdzc7nSE-62" target="tQh6TJB_D5dMbdzc7nSE-60">
                    <mxGeometry relative="1" as="geometry">
                        <Array as="points">
                            <mxPoint x="-95" y="1100"/>
                            <mxPoint x="-55" y="1100"/>
                            <mxPoint x="-55" y="1092"/>
                        </Array>
                    </mxGeometry>
                </mxCell>
                <mxCell id="tQh6TJB_D5dMbdzc7nSE-62" value="Producer" style="rounded=0;whiteSpace=wrap;html=1;fontSize=15;" vertex="1" parent="1">
                    <mxGeometry x="-215" y="1090" width="120" height="60" as="geometry"/>
                </mxCell>
                <mxCell id="tQh6TJB_D5dMbdzc7nSE-63" style="edgeStyle=orthogonalEdgeStyle;rounded=0;orthogonalLoop=1;jettySize=auto;html=1;exitX=1;exitY=0.5;exitDx=0;exitDy=0;entryX=0;entryY=0.231;entryDx=0;entryDy=0;entryPerimeter=0;dashed=1;fontSize=15;" edge="1" parent="1" source="tQh6TJB_D5dMbdzc7nSE-64" target="tQh6TJB_D5dMbdzc7nSE-60">
                    <mxGeometry relative="1" as="geometry">
                        <mxPoint x="5" y="1104.8999999999999" as="targetPoint"/>
                    </mxGeometry>
                </mxCell>
                <mxCell id="tQh6TJB_D5dMbdzc7nSE-64" value="Producer" style="rounded=0;whiteSpace=wrap;html=1;fontSize=15;" vertex="1" parent="1">
                    <mxGeometry x="-205" y="1100" width="120" height="60" as="geometry"/>
                </mxCell>
                <mxCell id="tQh6TJB_D5dMbdzc7nSE-65" style="edgeStyle=orthogonalEdgeStyle;rounded=0;orthogonalLoop=1;jettySize=auto;html=1;exitX=1;exitY=0.5;exitDx=0;exitDy=0;entryX=-0.008;entryY=0.301;entryDx=0;entryDy=0;entryPerimeter=0;dashed=1;fontSize=15;" edge="1" parent="1" source="tQh6TJB_D5dMbdzc7nSE-66" target="tQh6TJB_D5dMbdzc7nSE-60">
                    <mxGeometry relative="1" as="geometry">
                        <mxPoint x="15" y="1114.8999999999999" as="targetPoint"/>
                    </mxGeometry>
                </mxCell>
                <mxCell id="tQh6TJB_D5dMbdzc7nSE-66" value="Producer" style="rounded=0;whiteSpace=wrap;html=1;fontSize=15;" vertex="1" parent="1">
                    <mxGeometry x="-195" y="1110" width="120" height="60" as="geometry"/>
                </mxCell>
                <mxCell id="tQh6TJB_D5dMbdzc7nSE-67" style="edgeStyle=orthogonalEdgeStyle;rounded=0;orthogonalLoop=1;jettySize=auto;html=1;exitX=1;exitY=0.5;exitDx=0;exitDy=0;entryX=-0.002;entryY=0.395;entryDx=0;entryDy=0;entryPerimeter=0;dashed=1;fontSize=15;" edge="1" parent="1" source="tQh6TJB_D5dMbdzc7nSE-68" target="tQh6TJB_D5dMbdzc7nSE-60">
                    <mxGeometry relative="1" as="geometry">
                        <mxPoint x="25" y="1124.8999999999999" as="targetPoint"/>
                    </mxGeometry>
                </mxCell>
                <mxCell id="tQh6TJB_D5dMbdzc7nSE-68" value="Producer" style="rounded=0;whiteSpace=wrap;html=1;fontSize=15;" vertex="1" parent="1">
                    <mxGeometry x="-185" y="1120" width="120" height="60" as="geometry"/>
                </mxCell>
                <mxCell id="tQh6TJB_D5dMbdzc7nSE-69" style="edgeStyle=orthogonalEdgeStyle;rounded=0;orthogonalLoop=1;jettySize=auto;html=1;exitX=1;exitY=0.5;exitDx=0;exitDy=0;entryX=0;entryY=0;entryDx=0;entryDy=94.89999999999995;entryPerimeter=0;dashed=1;fontSize=15;" edge="1" parent="1" source="tQh6TJB_D5dMbdzc7nSE-70">
                    <mxGeometry relative="1" as="geometry">
                        <mxPoint x="35" y="1134.8999999999999" as="targetPoint"/>
                    </mxGeometry>
                </mxCell>
                <mxCell id="tQh6TJB_D5dMbdzc7nSE-70" value="Producer" style="rounded=0;whiteSpace=wrap;html=1;fontSize=15;" vertex="1" parent="1">
                    <mxGeometry x="-175" y="1130" width="120" height="60" as="geometry"/>
                </mxCell>
                <mxCell id="tQh6TJB_D5dMbdzc7nSE-71" style="edgeStyle=orthogonalEdgeStyle;rounded=0;orthogonalLoop=1;jettySize=auto;html=1;exitX=1;exitY=0.5;exitDx=0;exitDy=0;dashed=1;fontSize=15;" edge="1" parent="1" source="tQh6TJB_D5dMbdzc7nSE-72">
                    <mxGeometry relative="1" as="geometry">
                        <mxPoint x="35" y="1145" as="targetPoint"/>
                        <Array as="points">
                            <mxPoint x="5" y="1170"/>
                            <mxPoint x="5" y="1145"/>
                        </Array>
                    </mxGeometry>
                </mxCell>
                <mxCell id="tQh6TJB_D5dMbdzc7nSE-72" value="Producer" style="rounded=0;whiteSpace=wrap;html=1;fontSize=15;" vertex="1" parent="1">
                    <mxGeometry x="-165" y="1140" width="120" height="60" as="geometry"/>
                </mxCell>
                <mxCell id="tQh6TJB_D5dMbdzc7nSE-73" style="edgeStyle=orthogonalEdgeStyle;rounded=0;orthogonalLoop=1;jettySize=auto;html=1;exitX=1;exitY=0.5;exitDx=0;exitDy=0;entryX=0.004;entryY=0.66;entryDx=0;entryDy=0;entryPerimeter=0;dashed=1;fontSize=15;" edge="1" parent="1" source="tQh6TJB_D5dMbdzc7nSE-74" target="tQh6TJB_D5dMbdzc7nSE-60">
                    <mxGeometry relative="1" as="geometry">
                        <mxPoint x="55" y="1154.8999999999999" as="targetPoint"/>
                        <Array as="points">
                            <mxPoint x="15" y="1180"/>
                            <mxPoint x="15" y="1156"/>
                        </Array>
                    </mxGeometry>
                </mxCell>
                <mxCell id="tQh6TJB_D5dMbdzc7nSE-74" value="Producer" style="rounded=0;whiteSpace=wrap;html=1;fontSize=15;" vertex="1" parent="1">
                    <mxGeometry x="-155" y="1150" width="120" height="60" as="geometry"/>
                </mxCell>
                <mxCell id="tQh6TJB_D5dMbdzc7nSE-75" style="edgeStyle=orthogonalEdgeStyle;rounded=0;orthogonalLoop=1;jettySize=auto;html=1;exitX=1;exitY=0.5;exitDx=0;exitDy=0;entryX=0;entryY=0;entryDx=0;entryDy=94.89999999999995;entryPerimeter=0;dashed=1;fontSize=15;" edge="1" parent="1" source="tQh6TJB_D5dMbdzc7nSE-76" target="tQh6TJB_D5dMbdzc7nSE-60">
                    <mxGeometry relative="1" as="geometry">
                        <mxPoint x="65" y="1164.8999999999999" as="targetPoint"/>
                        <Array as="points">
                            <mxPoint x="25" y="1190"/>
                            <mxPoint x="25" y="1165"/>
                        </Array>
                    </mxGeometry>
                </mxCell>
                <mxCell id="tQh6TJB_D5dMbdzc7nSE-76" value="Producer A" style="rounded=0;whiteSpace=wrap;html=1;fontSize=15;" vertex="1" parent="1">
                    <mxGeometry x="-145" y="1160" width="120" height="60" as="geometry"/>
                </mxCell>
                <mxCell id="tQh6TJB_D5dMbdzc7nSE-77" value="Producing 1,2,3, ..,19, 20 to test-topic" style="shape=callout;whiteSpace=wrap;html=1;perimeter=calloutPerimeter;fontSize=15;" vertex="1" parent="1">
                    <mxGeometry x="-180" y="1000" width="175" height="80" as="geometry"/>
                </mxCell>
                <mxCell id="tQh6TJB_D5dMbdzc7nSE-78" value="Consumer" style="rounded=0;whiteSpace=wrap;html=1;fontSize=15;fillColor=#e1d5e7;strokeColor=#9673a6;" vertex="1" parent="1">
                    <mxGeometry x="305" y="1250" width="120" height="60" as="geometry"/>
                </mxCell>
                <mxCell id="tQh6TJB_D5dMbdzc7nSE-79" value="Consumer" style="rounded=0;whiteSpace=wrap;html=1;fontSize=15;fillColor=#e1d5e7;strokeColor=#9673a6;" vertex="1" parent="1">
                    <mxGeometry x="305" y="1080" width="120" height="60" as="geometry"/>
                </mxCell>
                <mxCell id="tQh6TJB_D5dMbdzc7nSE-80" value="partition 0" style="rounded=1;whiteSpace=wrap;html=1;fontSize=15;" vertex="1" parent="1">
                    <mxGeometry x="59" y="1094" width="120" height="30" as="geometry"/>
                </mxCell>
                <mxCell id="tQh6TJB_D5dMbdzc7nSE-81" value="partition 2" style="rounded=1;whiteSpace=wrap;html=1;fontSize=15;" vertex="1" parent="1">
                    <mxGeometry x="60" y="1160" width="120" height="30" as="geometry"/>
                </mxCell>
                <mxCell id="tQh6TJB_D5dMbdzc7nSE-82" value="" style="curved=1;endArrow=classic;html=1;rounded=0;dashed=1;fontSize=15;entryX=0;entryY=0.25;entryDx=0;entryDy=0;exitX=0;exitY=0.5;exitDx=0;exitDy=0;" edge="1" parent="1" source="tQh6TJB_D5dMbdzc7nSE-79" target="tQh6TJB_D5dMbdzc7nSE-79">
                    <mxGeometry width="50" height="50" relative="1" as="geometry">
                        <mxPoint x="125" y="1110" as="sourcePoint"/>
                        <mxPoint x="175" y="1060" as="targetPoint"/>
                        <Array as="points">
                            <mxPoint x="175" y="1120"/>
                            <mxPoint x="175" y="1110"/>
                        </Array>
                    </mxGeometry>
                </mxCell>
                <mxCell id="tQh6TJB_D5dMbdzc7nSE-83" value="" style="curved=1;endArrow=classic;html=1;rounded=0;dashed=1;fontSize=15;entryX=0;entryY=0.25;entryDx=0;entryDy=0;exitX=0;exitY=0.5;exitDx=0;exitDy=0;" edge="1" parent="1" source="tQh6TJB_D5dMbdzc7nSE-78" target="tQh6TJB_D5dMbdzc7nSE-78">
                    <mxGeometry width="50" height="50" relative="1" as="geometry">
                        <mxPoint x="315" y="1120" as="sourcePoint"/>
                        <mxPoint x="315" y="1105" as="targetPoint"/>
                        <Array as="points">
                            <mxPoint x="185" y="1190"/>
                            <mxPoint x="165" y="1170"/>
                        </Array>
                    </mxGeometry>
                </mxCell>
                <mxCell id="tQh6TJB_D5dMbdzc7nSE-84" value="Consumer" style="rounded=0;whiteSpace=wrap;html=1;fontSize=15;fillColor=#e1d5e7;strokeColor=#9673a6;" vertex="1" parent="1">
                    <mxGeometry x="305" y="1165" width="120" height="60" as="geometry"/>
                </mxCell>
            </root>
        </mxGraphModel>
    </diagram>
</mxfile>